<svg xmlns="http://www.w3.org/2000/svg" viewBox="0 0 76.11 90.65"><defs><style>.cls-1{fill:#2a7135;}.cls-2{fill:#fff;}</style></defs><g id="Layer_2" data-name="Layer 2"><g id="Layer_1-2" data-name="Layer 1"><path class="cls-1" d="M38.05,86.69a21.11,21.11,0,0,1-12.15,4C11.59,90.65,0,67.33,0,48.55S11.6,22.64,25.91,22.64a21.2,21.2,0,0,1,12.15,4,21.12,21.12,0,0,1,12.14-4c14.31,0,25.91,7.13,25.91,25.91s-11.6,42.1-25.91,42.1A21.06,21.06,0,0,1,38.05,86.69Z"/><path class="cls-1" d="M6.48,45.31a59.21,59.21,0,0,0,7.7,28.3"/><path class="cls-1" d="M38,25.41s-3.07-9.18,9.58-19.16"/><path class="cls-1" d="M64,3S46.53,26.25,42.12,7.31C39-6,64,3,64,3Z"/><path class="cls-2" d="M64,60.65,55.1,52l-25.84,27-.2-.46a.72.72,0,0,0-.14-.24l-14.53-17L.8,72.73V57.27L15.41,44.43a.9.9,0,0,1,1.26.08h0l13.6,16,16.3-17-8.78-8.7L64,34.64v26Z"/></g></g></svg>