<?xml version="1.0" encoding="utf-8"?>
<!-- Generator: Adobe Illustrator 25.4.1, SVG Export Plug-In . SVG Version: 6.00 Build 0)  -->
<svg version="1.1" id="Layer_1" xmlns="http://www.w3.org/2000/svg" xmlns:xlink="http://www.w3.org/1999/xlink" x="0px" y="0px"
	 viewBox="0 0 725.9 1152" style="enable-background:new 0 0 725.9 1152;" xml:space="preserve">
<style type="text/css">
	.st0{fill:#F1F2F2;}
	.st1{fill:#F2CF79;}
	.st2{fill:#172C59;}
	.st3{fill:#C5403F;}
	.st4{clip-path:url(#SVGID_00000165230802041395314680000012168378631824262839_);fill:#EA8088;}
	.st5{clip-path:url(#SVGID_00000109021696838871180840000007322384185543560890_);fill:#EA8088;}
	.st6{fill:#FFFFFF;}
	.st7{clip-path:url(#SVGID_00000054238401530182761700000016351642853488606896_);fill:#F2CF79;}
	.st8{clip-path:url(#SVGID_00000015323185396322117340000016149160487012042897_);fill:#D1D3D4;}
	.st9{fill:#D1D3D4;}
	.st10{fill:none;}
	.st11{fill:#F9E3B2;}
	.st12{fill:#EA8088;}
</style>
<g id="Layer_2_00000062170342143189698770000005011737995437842828_">
	<g id="_404">
		<circle class="st0" cx="366.5" cy="374.9" r="284.3"/>
	</g>
</g>
<g id="Layer_2_00000083797015059210332490000011209261336333118855_">
	<g id="_404_00000050655207751824914940000005911994511904056736_">
		<ellipse class="st0" cx="360.5" cy="1128.7" rx="281.1" ry="27.2"/>
		<rect x="316" y="312.4" class="st1" width="86.5" height="29.4"/>
		<path class="st1" d="M251.8,137.3h217.4c10,0,18.1,8.1,18.1,18.1v138.9c0,10-8.1,18.1-18.1,18.1H251.8c-10,0-18.1-8.1-18.1-18.1
			V155.4C233.7,145.4,241.8,137.3,251.8,137.3z"/>
		<circle class="st2" cx="303.7" cy="206.8" r="42.7"/>
		<ellipse transform="matrix(0.3158 -0.9488 0.9488 0.3158 11.5703 429.6678)" class="st3" cx="303.7" cy="206.8" rx="37" ry="37"/>
		<g>
			<defs>
				
					<ellipse id="SVGID_1_" transform="matrix(0.3158 -0.9488 0.9488 0.3158 11.5703 429.6678)" cx="303.7" cy="206.8" rx="37" ry="37"/>
			</defs>
			<clipPath id="SVGID_00000115488753764937027450000003115578195178468996_">
				<use xlink:href="#SVGID_1_"  style="overflow:visible;"/>
			</clipPath>
			
				<rect x="302.2" y="164.2" style="clip-path:url(#SVGID_00000115488753764937027450000003115578195178468996_);fill:#EA8088;" width="22.9" height="85.2"/>
			
				<rect x="284.7" y="164.2" style="clip-path:url(#SVGID_00000115488753764937027450000003115578195178468996_);fill:#EA8088;" width="12.6" height="85.2"/>
		</g>
		<circle class="st2" cx="417.3" cy="206.8" r="42.7"/>
		
			<ellipse transform="matrix(0.7071 -0.7071 0.7071 0.7071 -24.0105 355.6919)" class="st3" cx="417.4" cy="206.8" rx="37" ry="37"/>
		<g>
			<defs>
				
					<ellipse id="SVGID_00000061457651166660502880000017731832850655642808_" transform="matrix(0.7071 -0.7071 0.7071 0.7071 -24.0105 355.6919)" cx="417.4" cy="206.8" rx="37" ry="37"/>
			</defs>
			<clipPath id="SVGID_00000152242651221388883710000015400750998348427908_">
				<use xlink:href="#SVGID_00000061457651166660502880000017731832850655642808_"  style="overflow:visible;"/>
			</clipPath>
			
				<rect x="394.9" y="164.1" style="clip-path:url(#SVGID_00000152242651221388883710000015400750998348427908_);fill:#EA8088;" width="19.6" height="91.6"/>
			
				<rect x="419.1" y="165.1" style="clip-path:url(#SVGID_00000152242651221388883710000015400750998348427908_);fill:#EA8088;" width="8.4" height="91.6"/>
			
				<rect x="430.6" y="165.1" style="clip-path:url(#SVGID_00000152242651221388883710000015400750998348427908_);fill:#EA8088;" width="8.4" height="91.6"/>
		</g>
		<path class="st6" d="M312.3,265.7h96.5c3.2,0,5.7,2.6,5.7,5.7v18.7c0,3.2-2.6,5.7-5.7,5.7h-96.5c-3.2,0-5.7-2.6-5.7-5.7v-18.7
			C306.6,268.2,309.1,265.7,312.3,265.7z"/>
		<rect x="316" y="265.7" class="st2" width="5.1" height="30.1"/>
		<rect x="328" y="265.7" class="st2" width="5.1" height="30.1"/>
		<rect x="340" y="265.7" class="st2" width="5.1" height="30.1"/>
		<rect x="352" y="265.7" class="st2" width="5.1" height="30.1"/>
		<rect x="364" y="265.7" class="st2" width="5.1" height="30.1"/>
		<rect x="376" y="265.7" class="st2" width="5.1" height="30.1"/>
		<rect x="388" y="265.7" class="st2" width="5.1" height="30.1"/>
		<rect x="400" y="265.7" class="st2" width="5.1" height="30.1"/>
		<rect x="283.5" y="118.3" class="st1" width="154" height="19"/>
		<rect x="208.2" y="169.8" class="st2" width="25.6" height="103.7"/>
		<rect x="487.3" y="173" class="st2" width="25.6" height="103.7"/>
		<path class="st1" d="M258.8,341.8h203.4c11.8,0,21.4,9.6,21.4,21.4v303c0,11.8-9.6,21.4-21.4,21.4H258.8
			c-11.8,0-21.4-9.6-21.4-21.4v-303C237.5,351.4,247,341.8,258.8,341.8z"/>
		<g>
			<defs>
				<path id="SVGID_00000023270168777716396980000008895917894808277171_" d="M258.8,341.8h203.4c11.8,0,21.4,9.6,21.4,21.4v303
					c0,11.8-9.6,21.4-21.4,21.4H258.8c-11.8,0-21.4-9.6-21.4-21.4v-303C237.5,351.4,247,341.8,258.8,341.8z"/>
			</defs>
			<clipPath id="SVGID_00000056429976217214045670000015318048478014732702_">
				<use xlink:href="#SVGID_00000023270168777716396980000008895917894808277171_"  style="overflow:visible;"/>
			</clipPath>
			
				<rect x="223.7" y="624.1" style="clip-path:url(#SVGID_00000056429976217214045670000015318048478014732702_);fill:#F2CF79;" width="273.4" height="89.5"/>
		</g>
		<path class="st2" d="M281.5,341.8H434l0,0v122c0,42.1-34.2,76.3-76.3,76.3l0,0l0,0c-42.1,0-76.3-34.2-76.3-76.3l0,0L281.5,341.8
			L281.5,341.8z"/>
		<g>
			<defs>
				<path id="SVGID_00000101071065151349632210000018440897219541113018_" d="M281.5,341.8H434l0,0v122c0,42.1-34.2,76.3-76.3,76.3
					l0,0l0,0c-42.1,0-76.3-34.2-76.3-76.3l0,0L281.5,341.8L281.5,341.8z"/>
			</defs>
			<clipPath id="SVGID_00000172427036678421389590000015633605371038153387_">
				<use xlink:href="#SVGID_00000101071065151349632210000018440897219541113018_"  style="overflow:visible;"/>
			</clipPath>
			
				<rect x="315.1" y="396.9" style="clip-path:url(#SVGID_00000172427036678421389590000015633605371038153387_);fill:#D1D3D4;" width="12" height="69.3"/>
			
				<rect x="339.1" y="396.9" style="clip-path:url(#SVGID_00000172427036678421389590000015633605371038153387_);fill:#D1D3D4;" width="12" height="69.3"/>
			
				<rect x="363.1" y="396.9" style="clip-path:url(#SVGID_00000172427036678421389590000015633605371038153387_);fill:#D1D3D4;" width="12" height="69.3"/>
			
				<rect x="387.1" y="396.9" style="clip-path:url(#SVGID_00000172427036678421389590000015633605371038153387_);fill:#D1D3D4;" width="12" height="69.3"/>
		</g>
		<rect x="266.7" y="687.6" class="st2" width="39.8" height="315.8"/>
		<rect x="414.1" y="687.6" class="st2" width="39.8" height="315.8"/>
		
			<ellipse transform="matrix(0.9514 -0.3079 0.3079 0.9514 -242.1829 128.6878)" class="st1" cx="286.7" cy="831.7" rx="35.1" ry="35.1"/>
		
			<ellipse transform="matrix(0.7946 -0.6071 0.6071 0.7946 -418.2813 435.1781)" class="st1" cx="434.1" cy="835.8" rx="35.1" ry="35.1"/>
		<path class="st1" d="M306.6,1128.7h-82.9l24.2-109.1c2.1-9.5,10.5-16.2,20.2-16.2h38.4V1128.7z"/>
		<path class="st2" d="M306.6,1128.7h-101c0-21.3,17.3-38.5,38.5-38.5c0,0,0,0,0,0h62.4L306.6,1128.7z"/>
		<rect x="225.5" y="1112.6" class="st9" width="14.1" height="16.1"/>
		<rect x="248.5" y="1112.6" class="st9" width="14.1" height="16.1"/>
		<rect x="270.2" y="1112.6" class="st9" width="14.1" height="16.1"/>
		<path class="st1" d="M414.1,1128.7H497l-24.2-109.1c-2.1-9.5-10.5-16.2-20.2-16.2h-38.4V1128.7z"/>
		<path class="st2" d="M414.1,1128.7h101c0-21.3-17.3-38.5-38.5-38.5h0h-62.5V1128.7z"/>
		<rect x="481.1" y="1112.6" class="st9" width="14.1" height="16.1"/>
		<rect x="458.1" y="1112.6" class="st9" width="14.1" height="16.1"/>
		<rect x="436.4" y="1112.6" class="st9" width="14.1" height="16.1"/>
		<rect x="279.3" y="897.7" class="st9" width="14.8" height="105.7"/>
		<rect x="426.6" y="897.7" class="st9" width="14.8" height="105.7"/>
		<rect x="279.5" y="687.6" class="st9" width="14.8" height="21.2"/>
		<rect x="426.8" y="687.6" class="st9" width="14.8" height="21.2"/>
		<polygon class="st2" points="237.5,360.7 208.2,360.7 167.9,360.7 167.9,431 167.9,431.5 181.7,431.5 181.7,580.1 194.4,579.3 
			194.4,431.5 237.5,431.5 		"/>
		<rect x="181.7" y="406.6" class="st9" width="12.8" height="24.9"/>
		<circle class="st1" cx="187.4" cy="586.7" r="19.5"/>
		<polygon class="st2" points="483.6,360.7 512.9,360.7 553.2,360.7 553.2,431 553.2,431.5 539.4,431.5 539.4,580.1 526.7,579.3 
			526.7,431.5 483.6,431.5 		"/>
		<rect x="526.7" y="406.6" class="st9" width="12.8" height="24.9"/>
		<circle class="st1" cx="533.7" cy="586.7" r="19.5"/>
		<path class="st9" d="M156.5,540.9l369.2,108.6c2.3,49.3,44.1,87.4,93.4,85.1c29.8-1.4,56.9-17.5,72.3-43l-57,1.3
			c-19.2,0.4-35.8-13.5-38.8-32.5l0,0c-3.2-20.9,11.1-40.5,32.1-43.7c1.5-0.2,3.1-0.4,4.6-0.4l66.3-2.1
			c-17.3-46.2-68.7-69.7-115-52.4c-16.7,6.2-31.2,17.4-41.5,31.9L172.9,485c-2.3-49.3-44.1-87.4-93.4-85.1
			c-29.8,1.4-56.9,17.5-72.3,43l57-1.3c19.2-0.4,35.8,13.5,38.8,32.5l0,0c3.2,20.9-11.1,40.5-32.1,43.7c-1.5,0.2-3.1,0.4-4.6,0.4
			L0,520.3c17.3,46.2,68.7,69.7,115,52.4C131.7,566.5,146.2,555.4,156.5,540.9z"/>
		<path class="st6" d="M197.3,522.5L197.3,522.5c1.9-6.5,8.7-10.2,15.2-8.3l262,77c6.5,1.9,10.2,8.7,8.3,15.2c0,0,0,0,0,0l0,0
			c-1.9,6.5-8.7,10.2-15.2,8.3c0,0,0,0,0,0l-262-77C199.1,535.8,195.4,529,197.3,522.5z"/>
		<path class="st2" d="M261.1,477.8L261.1,477.8c-10-4.4-21.7,0.2-26.1,10.2c0,0,0,0,0,0l-19.5,44.3l9.3,4.1l-39,44.5
			c-2.3,2.6-2.1,6.7,0.6,9l0,0c2.6,2.3,6.7,2.1,9-0.6c0,0,0,0,0,0l41.7-47.5l14.7,6.5l19.5-44.3
			C275.7,493.9,271.1,482.2,261.1,477.8C261.1,477.8,261.1,477.8,261.1,477.8z"/>
		<polygon class="st1" points="215.6,532.3 251.8,548.2 256.5,537.6 220.4,521.2 		"/>
		<line class="st10" x1="503.1" y1="593.4" x2="489.8" y2="595.1"/>
		<path class="st2" d="M521.3,643l-32.7,3l-3.6-39.4c-0.8-9,5.8-17,14.8-17.8c0,0,0,0,0,0l0,0c9-0.8,17,5.8,17.9,14.8c0,0,0,0,0,0
			L521.3,643z"/>
		
			<rect x="488.1" y="634.9" transform="matrix(0.9958 -9.150162e-02 9.150162e-02 0.9958 -56.4201 48.8449)" class="st1" width="32.8" height="9.7"/>
		<path class="st2" d="M506.3,659.2L506.3,659.2c-3.7,0.3-6.9-2.3-7.3-6l-0.7-8l13.3-1.2l0.7,8C512.7,655.6,510,658.9,506.3,659.2z"
			/>
		<rect x="352" y="42.4" class="st2" width="14.5" height="75.9"/>
		<circle class="st1" cx="359.1" cy="34.3" r="22"/>
		<circle class="st11" cx="364" cy="27.2" r="12"/>
		<rect x="221" y="183.6" class="st12" width="12.8" height="12.8"/>
		<rect x="221" y="204.8" class="st12" width="12.8" height="12.8"/>
		<rect x="221" y="225.9" class="st12" width="12.8" height="12.8"/>
		<rect x="221" y="247" class="st12" width="12.8" height="12.8"/>
		<rect x="487.3" y="186.8" class="st12" width="12.8" height="12.8"/>
		<rect x="487.3" y="207.9" class="st12" width="12.8" height="12.8"/>
		<rect x="487.3" y="229" class="st12" width="12.8" height="12.8"/>
		<rect x="487.3" y="250.1" class="st12" width="12.8" height="12.8"/>
		<polygon class="st1" points="563,295.8 638.5,194.8 641.2,250.1 725.9,193.2 622,303.3 623.3,243.8 		"/>
		<polygon class="st1" points="173.6,698.2 33.8,831.7 113,806.8 28,927 202.7,764.7 141,770.5 		"/>
		<polygon class="st1" points="167.9,323.5 141.6,227.5 121.2,261.9 83.1,196 112.8,320.4 134.2,277.7 		"/>
		<polygon class="st1" points="505.8,758.9 523.1,821.9 536.5,799.3 561.5,842.6 542,760.9 528,789 		"/>
	</g>
</g>
</svg>
