<?xml version="1.0" encoding="utf-8"?>
<!-- Generator: Adobe Illustrator 25.4.1, SVG Export Plug-In . SVG Version: 6.00 Build 0)  -->
<svg version="1.1" id="Layer_1" xmlns="http://www.w3.org/2000/svg" xmlns:xlink="http://www.w3.org/1999/xlink" x="0px" y="0px"
	 viewBox="0 0 1723.6 1143.6" style="enable-background:new 0 0 1723.6 1143.6;" xml:space="preserve">
<style type="text/css">
	.st0{fill:#F1F2F2;}
	.st1{fill:#F2CF79;}
	.st2{fill:#172C59;}
	.st3{fill:#C5403F;}
	.st4{clip-path:url(#SVGID_00000167392861812037467440000007550276758031929476_);fill:#EA8088;}
	.st5{clip-path:url(#SVGID_00000013165542624583775360000016152778238754705314_);fill:#EA8088;}
	.st6{fill:#FFFFFF;}
	.st7{clip-path:url(#SVGID_00000169541491195148468850000014498473474643620254_);fill:#F2CF79;}
	.st8{clip-path:url(#SVGID_00000040538034820867566440000000052716918834157956_);fill:#D1D3D4;}
	.st9{fill:#D1D3D4;}
	.st10{fill:none;}
	.st11{fill:#F9E3B2;}
	.st12{fill:#EA8088;}
</style>
<g id="Layer_2_00000083797015059210332490000011209261336333118855_">
	<g id="_404">
		<ellipse class="st0" cx="360.5" cy="1116.4" rx="281.1" ry="27.2"/>
		<path class="st0" d="M946.1,171.9c-48.1,21.9-95.2,46.5-142.4,68.8C669.9,304,529.8,330.4,385,356.2
			c-114.3,20.4-240.2,53.2-303.9,159.3c-68.4,114-3.2,273.6,85,358.3c138,132.3,342.8,161,526.1,144.2
			c240.2-22.1,506-97.3,705.7-236.1c144-100,198.6-255.5,141.2-422.7c-55-160-202-261-371.4-250.6
			C1089.4,113.6,1016.7,139.8,946.1,171.9z"/>
		<rect x="316" y="300.1" class="st1" width="86.5" height="29.4"/>
		<path class="st1" d="M251.8,125h217.4c10,0,18.1,8.1,18.1,18.1V282c0,10-8.1,18.1-18.1,18.1H251.8c-10,0-18.1-8.1-18.1-18.1V143.1
			C233.7,133.1,241.8,125,251.8,125z"/>
		<circle class="st2" cx="303.7" cy="194.6" r="42.7"/>
		<ellipse transform="matrix(0.3158 -0.9488 0.9488 0.3158 23.2013 421.2807)" class="st3" cx="303.7" cy="194.6" rx="37" ry="37"/>
		<g>
			<defs>
				
					<ellipse id="SVGID_1_" transform="matrix(0.3158 -0.9488 0.9488 0.3158 23.2013 421.2807)" cx="303.7" cy="194.6" rx="37" ry="37"/>
			</defs>
			<clipPath id="SVGID_00000092416442101073184410000016220234475231429040_">
				<use xlink:href="#SVGID_1_"  style="overflow:visible;"/>
			</clipPath>
			
				<rect x="302.2" y="152" style="clip-path:url(#SVGID_00000092416442101073184410000016220234475231429040_);fill:#EA8088;" width="22.9" height="85.2"/>
			
				<rect x="284.7" y="152" style="clip-path:url(#SVGID_00000092416442101073184410000016220234475231429040_);fill:#EA8088;" width="12.6" height="85.2"/>
		</g>
		<circle class="st2" cx="417.3" cy="194.6" r="42.7"/>
		
			<ellipse transform="matrix(0.7071 -0.7071 0.7071 0.7071 -15.3425 352.1014)" class="st3" cx="417.4" cy="194.6" rx="37" ry="37"/>
		<g>
			<defs>
				
					<ellipse id="SVGID_00000107586156270662668690000008191507768748880544_" transform="matrix(0.7071 -0.7071 0.7071 0.7071 -15.3425 352.1014)" cx="417.4" cy="194.6" rx="37" ry="37"/>
			</defs>
			<clipPath id="SVGID_00000101089773956671921950000007210343717377902256_">
				<use xlink:href="#SVGID_00000107586156270662668690000008191507768748880544_"  style="overflow:visible;"/>
			</clipPath>
			
				<rect x="394.9" y="151.9" style="clip-path:url(#SVGID_00000101089773956671921950000007210343717377902256_);fill:#EA8088;" width="19.6" height="91.6"/>
			
				<rect x="419.1" y="152.8" style="clip-path:url(#SVGID_00000101089773956671921950000007210343717377902256_);fill:#EA8088;" width="8.4" height="91.6"/>
			
				<rect x="430.6" y="152.9" style="clip-path:url(#SVGID_00000101089773956671921950000007210343717377902256_);fill:#EA8088;" width="8.4" height="91.6"/>
		</g>
		<path class="st6" d="M312.3,253.4h96.5c3.2,0,5.7,2.6,5.7,5.7v18.7c0,3.2-2.6,5.7-5.7,5.7h-96.5c-3.2,0-5.7-2.6-5.7-5.7v-18.7
			C306.6,256,309.1,253.4,312.3,253.4z"/>
		<rect x="316" y="253.4" class="st2" width="5.1" height="30.1"/>
		<rect x="328" y="253.4" class="st2" width="5.1" height="30.1"/>
		<rect x="340" y="253.4" class="st2" width="5.1" height="30.1"/>
		<rect x="352" y="253.4" class="st2" width="5.1" height="30.1"/>
		<rect x="364" y="253.4" class="st2" width="5.1" height="30.1"/>
		<rect x="376" y="253.4" class="st2" width="5.1" height="30.1"/>
		<rect x="388" y="253.4" class="st2" width="5.1" height="30.1"/>
		<rect x="400" y="253.4" class="st2" width="5.1" height="30.1"/>
		<rect x="283.5" y="106.1" class="st1" width="154" height="19"/>
		<rect x="208.2" y="157.6" class="st2" width="25.6" height="103.7"/>
		<rect x="487.3" y="160.7" class="st2" width="25.6" height="103.7"/>
		<path class="st1" d="M258.8,329.5h203.4c11.8,0,21.4,9.6,21.4,21.4v303c0,11.8-9.6,21.4-21.4,21.4H258.8
			c-11.8,0-21.4-9.6-21.4-21.4v-303C237.5,339.1,247,329.5,258.8,329.5z"/>
		<g>
			<defs>
				<path id="SVGID_00000039101856777623886660000005545737413697316519_" d="M258.8,329.5h203.4c11.8,0,21.4,9.6,21.4,21.4v303
					c0,11.8-9.6,21.4-21.4,21.4H258.8c-11.8,0-21.4-9.6-21.4-21.4v-303C237.5,339.1,247,329.5,258.8,329.5z"/>
			</defs>
			<clipPath id="SVGID_00000083046949209613091780000004043368739740796086_">
				<use xlink:href="#SVGID_00000039101856777623886660000005545737413697316519_"  style="overflow:visible;"/>
			</clipPath>
			
				<rect x="223.7" y="611.8" style="clip-path:url(#SVGID_00000083046949209613091780000004043368739740796086_);fill:#F2CF79;" width="273.4" height="89.5"/>
		</g>
		<path class="st2" d="M281.5,329.5H434l0,0v122c0,42.1-34.2,76.3-76.3,76.3l0,0l0,0c-42.1,0-76.3-34.2-76.3-76.3l0,0L281.5,329.5
			L281.5,329.5z"/>
		<g>
			<defs>
				<path id="SVGID_00000152242991798053264050000007411599764493297795_" d="M281.5,329.5H434l0,0v122c0,42.1-34.2,76.3-76.3,76.3
					l0,0l0,0c-42.1,0-76.3-34.2-76.3-76.3l0,0L281.5,329.5L281.5,329.5z"/>
			</defs>
			<clipPath id="SVGID_00000070836917362600794840000006088230973398786493_">
				<use xlink:href="#SVGID_00000152242991798053264050000007411599764493297795_"  style="overflow:visible;"/>
			</clipPath>
			
				<rect x="315.1" y="384.6" style="clip-path:url(#SVGID_00000070836917362600794840000006088230973398786493_);fill:#D1D3D4;" width="12" height="69.3"/>
			
				<rect x="339.1" y="384.6" style="clip-path:url(#SVGID_00000070836917362600794840000006088230973398786493_);fill:#D1D3D4;" width="12" height="69.3"/>
			
				<rect x="363.1" y="384.6" style="clip-path:url(#SVGID_00000070836917362600794840000006088230973398786493_);fill:#D1D3D4;" width="12" height="69.3"/>
			
				<rect x="387.1" y="384.6" style="clip-path:url(#SVGID_00000070836917362600794840000006088230973398786493_);fill:#D1D3D4;" width="12" height="69.3"/>
		</g>
		<rect x="266.7" y="675.3" class="st2" width="39.8" height="315.8"/>
		<rect x="414.1" y="675.3" class="st2" width="39.8" height="315.8"/>
		
			<ellipse transform="matrix(0.9514 -0.3079 0.3079 0.9514 -238.4081 128.0921)" class="st1" cx="286.7" cy="819.4" rx="35.1" ry="35.1"/>
		
			<ellipse transform="matrix(0.7946 -0.6071 0.6071 0.7946 -410.8392 432.6606)" class="st1" cx="434.1" cy="823.6" rx="35.1" ry="35.1"/>
		<path class="st1" d="M306.6,1116.4h-82.9l24.2-109.1c2.1-9.5,10.5-16.2,20.2-16.2h38.4V1116.4z"/>
		<path class="st2" d="M306.6,1116.4h-101c0-21.3,17.3-38.5,38.5-38.5c0,0,0,0,0,0h62.4L306.6,1116.4z"/>
		<rect x="225.5" y="1100.3" class="st9" width="14.1" height="16.1"/>
		<rect x="248.5" y="1100.3" class="st9" width="14.1" height="16.1"/>
		<rect x="270.2" y="1100.3" class="st9" width="14.1" height="16.1"/>
		<path class="st1" d="M414.1,1116.4H497l-24.2-109.1c-2.1-9.5-10.5-16.2-20.2-16.2h-38.4V1116.4z"/>
		<path class="st2" d="M414.1,1116.4h101c0-21.3-17.3-38.5-38.5-38.5h0h-62.5V1116.4z"/>
		<rect x="481.1" y="1100.4" class="st9" width="14.1" height="16.1"/>
		<rect x="458.1" y="1100.4" class="st9" width="14.1" height="16.1"/>
		<rect x="436.4" y="1100.4" class="st9" width="14.1" height="16.1"/>
		<rect x="279.3" y="885.4" class="st9" width="14.8" height="105.7"/>
		<rect x="426.6" y="885.4" class="st9" width="14.8" height="105.7"/>
		<rect x="279.5" y="675.3" class="st9" width="14.8" height="21.2"/>
		<rect x="426.8" y="675.3" class="st9" width="14.8" height="21.2"/>
		<polygon class="st2" points="237.5,348.4 208.2,348.4 167.9,348.4 167.9,418.8 167.9,419.3 181.7,419.3 181.7,567.8 194.4,567 
			194.4,419.3 237.5,419.3 		"/>
		<rect x="181.7" y="394.4" class="st9" width="12.8" height="24.9"/>
		<circle class="st1" cx="187.4" cy="574.5" r="19.5"/>
		<polygon class="st2" points="483.6,348.4 512.9,348.4 553.2,348.4 553.2,418.8 553.2,419.3 539.4,419.3 539.4,567.8 526.7,567 
			526.7,419.3 483.6,419.3 		"/>
		<rect x="526.7" y="394.4" class="st9" width="12.8" height="24.9"/>
		<circle class="st1" cx="533.7" cy="574.5" r="19.5"/>
		<path class="st9" d="M156.5,528.6l369.2,108.6c2.3,49.3,44.1,87.4,93.4,85.1c29.8-1.4,56.9-17.5,72.3-43l-57,1.3
			c-19.2,0.4-35.8-13.5-38.8-32.5l0,0c-3.2-20.9,11.1-40.5,32.1-43.7c1.5-0.2,3.1-0.4,4.6-0.4l66.3-2.1
			c-17.3-46.2-68.7-69.7-115-52.4c-16.7,6.2-31.2,17.4-41.5,31.9L172.9,472.7c-2.3-49.3-44.1-87.4-93.4-85.1
			c-29.8,1.4-56.9,17.5-72.3,43l57-1.3c19.2-0.4,35.8,13.5,38.8,32.5l0,0c3.2,20.9-11.1,40.5-32.1,43.7c-1.5,0.2-3.1,0.4-4.6,0.4
			L0,508.1c17.3,46.2,68.7,69.7,115,52.4C131.7,554.3,146.2,543.2,156.5,528.6z"/>
		<path class="st6" d="M197.3,510.3L197.3,510.3c1.9-6.5,8.7-10.2,15.2-8.3l262,77c6.5,1.9,10.2,8.7,8.3,15.2c0,0,0,0,0,0l0,0
			c-1.9,6.5-8.7,10.2-15.2,8.3c0,0,0,0,0,0l-262-77C199.1,523.6,195.4,516.8,197.3,510.3z"/>
		<path class="st2" d="M261.1,465.5L261.1,465.5c-10-4.4-21.7,0.2-26.1,10.2c0,0,0,0,0,0L215.5,520l9.3,4.1l-39,44.5
			c-2.3,2.6-2.1,6.7,0.6,9l0,0c2.6,2.3,6.7,2.1,9-0.6c0,0,0,0,0,0l41.7-47.5l14.7,6.5l19.5-44.4
			C275.7,481.6,271.1,469.9,261.1,465.5C261.1,465.5,261.1,465.5,261.1,465.5z"/>
		<polygon class="st1" points="215.6,520 251.8,536 256.5,525.3 220.4,508.9 		"/>
		<line class="st10" x1="503.1" y1="581.2" x2="489.8" y2="582.9"/>
		<path class="st2" d="M521.3,630.8l-32.7,3l-3.6-39.4c-0.8-9,5.8-17,14.8-17.8c0,0,0,0,0,0l0,0c9-0.8,17,5.8,17.9,14.8c0,0,0,0,0,0
			L521.3,630.8z"/>
		
			<rect x="488.1" y="622.6" transform="matrix(0.9958 -9.150162e-02 9.150162e-02 0.9958 -55.2985 48.7935)" class="st1" width="32.8" height="9.7"/>
		<path class="st2" d="M506.3,646.9L506.3,646.9c-3.7,0.3-6.9-2.3-7.3-6l-0.7-8l13.3-1.2l0.7,8C512.7,643.4,510,646.6,506.3,646.9z"
			/>
		<rect x="352" y="30.1" class="st2" width="14.5" height="75.9"/>
		<circle class="st1" cx="359.1" cy="22" r="22"/>
		<circle class="st11" cx="364" cy="15" r="12"/>
		<rect x="221" y="171.4" class="st12" width="12.8" height="12.8"/>
		<rect x="221" y="192.5" class="st12" width="12.8" height="12.8"/>
		<rect x="221" y="213.6" class="st12" width="12.8" height="12.8"/>
		<rect x="221" y="234.7" class="st12" width="12.8" height="12.8"/>
		<rect x="487.3" y="174.5" class="st12" width="12.8" height="12.8"/>
		<rect x="487.3" y="195.6" class="st12" width="12.8" height="12.8"/>
		<rect x="487.3" y="216.8" class="st12" width="12.8" height="12.8"/>
		<rect x="487.3" y="237.9" class="st12" width="12.8" height="12.8"/>
		<polygon class="st1" points="563,283.5 638.5,182.5 641.2,237.9 725.9,180.9 622,291 623.3,231.6 		"/>
		<polygon class="st1" points="173.6,685.9 33.8,819.5 113,794.5 28,914.7 202.7,752.5 141,758.3 		"/>
		<polygon class="st1" points="167.9,311.3 141.6,215.3 121.2,249.6 83.1,183.7 112.8,308.1 134.2,265.4 		"/>
		<polygon class="st1" points="505.8,746.6 523.1,809.6 536.5,787.1 561.5,830.3 542,748.7 528,776.7 		"/>
		<path d="M1173.1,535.2c0,95.8-58.2,146.6-129.3,146.6c-73.5,0-125.1-57-125.1-141.2c0-88.4,54.9-146.2,129.3-146.2
			C1123.9,394.4,1173.1,452.6,1173.1,535.2z M957.1,539.8c0,59.5,32.2,112.8,88.8,112.8c57,0,89.2-52.5,89.2-115.6
			c0-55.3-28.9-113.2-88.8-113.2C986.8,423.7,957.1,478.6,957.1,539.8L957.1,539.8z"/>
		<path d="M1401.1,575.7c0,73.9-51.2,106.1-99.5,106.1c-54.1,0-95.8-39.7-95.8-102.8c0-66.9,43.8-106.1,99.1-106.1
			C1362.2,472.9,1401.1,514.6,1401.1,575.7z M1242.5,577.8c0,43.8,25.2,76.8,60.7,76.8c34.7,0,60.7-32.6,60.7-77.6
			c0-33.9-16.9-76.8-59.9-76.8S1242.5,539.8,1242.5,577.8L1242.5,577.8z"/>
		<path d="M1446.9,542.7c0-25.6-0.8-46.3-1.7-65.3h32.6l1.7,34.3h0.8c14.9-24.4,38.4-38.8,71-38.8c48.3,0,84.7,40.9,84.7,101.6
			c0,71.9-43.8,107.4-90.9,107.4c-26.4,0-49.6-11.6-61.5-31.4h-0.8v108.6h-35.9L1446.9,542.7z M1482.8,595.9c0.1,5,0.6,10,1.7,14.9
			c6.6,25.2,28.5,42.5,54.5,42.5c38.4,0,60.7-31.4,60.7-77.2c0-40.1-21.1-74.3-59.5-74.3c-24.8,0-47.9,17.8-54.9,45
			c-1.2,4.5-2.5,9.9-2.5,14.9V595.9z"/>
		<path d="M1674.9,656.2c0-14.9,10.3-25.6,24.4-25.6c14.9,0,24.4,10.7,24.4,25.6c0,14.5-9.5,25.6-24.4,25.6
			C1684.8,681.8,1674.9,670.7,1674.9,656.2z M1685.2,597.2l-5.8-198.2h39.7l-5.8,198.2H1685.2z"/>
		<path d="M999.5,834.4c5.7-0.9,11.4-1.4,17.2-1.3c8.9,0,15.3,2.1,19.5,5.8c3.8,3.3,6.1,8.3,6.1,14.5s-1.8,11.2-5.3,14.8
			c-4.7,5-12.4,7.6-21.2,7.6c-2.4,0.1-4.8-0.1-7.2-0.6v27.8h-9L999.5,834.4z M1008.5,867.8c2.4,0.5,4.9,0.8,7.4,0.7
			c10.8,0,17.4-5.2,17.4-14.8c0-9.2-6.5-13.6-16.4-13.6c-2.8-0.1-5.7,0.2-8.4,0.7L1008.5,867.8z"/>
		<path d="M1078.8,902.9l-0.7-6.3h-0.3c-3.6,4.8-9.2,7.5-15.2,7.4c-10.1,0-15.2-7.1-15.2-14.3c0-12,10.7-18.6,29.9-18.5v-1
			c0-4.1-1.1-11.5-11.3-11.5c-4.6,0-9.1,1.3-13,3.7l-2.1-6c4.9-3,10.6-4.5,16.4-4.4c15.2,0,18.9,10.4,18.9,20.4V891
			c-0.1,4,0.2,8,0.8,11.9L1078.8,902.9z M1077.5,877.5c-9.9-0.2-21.1,1.5-21.1,11.2c0,5.9,3.9,8.6,8.5,8.6c5.4,0.1,10.2-3.2,12-8.3
			c0.3-0.9,0.5-1.9,0.5-2.9L1077.5,877.5z"/>
		<path d="M1143.7,853.1c-0.2,3.6-0.4,7.6-0.4,13.7v28.9c0,11.4-2.3,18.4-7.1,22.7c-4.8,4.5-11.8,6-18.1,6c-6,0-12.6-1.5-16.6-4.1
			l2.3-6.9c4.4,2.6,9.5,4,14.6,3.9c9.3,0,16-4.8,16-17.4v-5.5h-0.2c-2.8,4.6-8.1,8.3-15.8,8.3c-12.3,0-21.2-10.5-21.2-24.3
			c0-16.9,11-26.4,22.4-26.4c8.6,0,13.4,4.5,15.5,8.6h0.2l0.4-7.5L1143.7,853.1z M1134.4,872.8c0.1-1.4-0.1-2.8-0.5-4.1
			c-1.7-5.3-6.1-9.6-12.7-9.6c-8.6,0-14.8,7.3-14.8,18.8c0,9.8,4.9,17.9,14.7,17.9c5.7,0,10.8-3.8,12.6-9.3c0.5-1.6,0.7-3.2,0.7-4.8
			L1134.4,872.8z"/>
		<path d="M1163.4,879.7c0.2,12.2,8,17.3,17.1,17.3c4.7,0.1,9.4-0.7,13.8-2.6l1.5,6.5c-3.2,1.4-8.6,3.1-16.6,3.1
			c-15.3,0-24.5-10.1-24.5-25.1s8.8-26.8,23.3-26.8c16.3,0,20.6,14.3,20.6,23.5c0,1.4-0.1,2.8-0.3,4.2L1163.4,879.7z M1189.9,873.2
			c0.1-5.8-2.4-14.7-12.6-14.7c-9.2,0-13.2,8.4-13.9,14.7H1189.9z"/>
		<path d="M1231.7,866.6c0-5.1-0.1-9.4-0.4-13.5h8l0.5,8.2h0.2c3.3-5.9,9.7-9.5,16.5-9.4c6.9,0,17.6,4.1,17.6,21.2v29.7h-9v-28.7
			c0-8-3-14.7-11.5-14.7c-5.6,0.1-10.6,3.8-12.1,9.3c-0.4,1.4-0.6,2.8-0.6,4.2v29.9h-9L1231.7,866.6z"/>
		<path d="M1333.8,877.6c0,18.4-12.8,26.4-24.8,26.4c-13.5,0-23.9-9.9-23.9-25.6c0-16.7,10.9-26.4,24.7-26.4
			C1324.2,852,1333.8,862.4,1333.8,877.6z M1294.3,878.1c0,10.9,6.3,19.1,15.1,19.1c8.6,0,15.1-8.1,15.1-19.3
			c0-8.4-4.2-19.1-14.9-19.1S1294.3,868.6,1294.3,878.1L1294.3,878.1z"/>
		<path d="M1356.2,838.8v14.3h13v6.9h-13v26.8c0,6.2,1.8,9.7,6.8,9.7c1.8,0,3.5-0.2,5.3-0.6l0.4,6.8c-2.6,0.9-5.3,1.3-8,1.2
			c-4.2,0-7.6-1.3-9.8-3.8c-2.6-2.7-3.5-7.1-3.5-13V860h-7.7v-6.9h7.7v-11.9L1356.2,838.8z"/>
		<path d="M1402,902.9V860h-7v-6.9h7v-2.4c0-7,1.5-13.4,5.8-17.4c3.3-3.1,7.6-4.7,12.1-4.6c2.6,0,5.3,0.5,7.7,1.4l-1.2,7
			c-1.8-0.8-3.8-1.2-5.8-1.1c-7.7,0-9.7,6.8-9.7,14.4v2.7h12v6.9h-12v42.9H1402z"/>
		<path d="M1474.9,877.6c0,18.4-12.8,26.4-24.8,26.4c-13.5,0-23.9-9.9-23.9-25.6c0-16.7,10.9-26.4,24.7-26.4
			C1465.2,852,1474.9,862.4,1474.9,877.6z M1435.4,878.1c0,10.9,6.3,19.1,15.1,19.1c8.6,0,15.1-8.1,15.1-19.3
			c0-8.4-4.2-19.1-14.9-19.1S1435.4,868.6,1435.4,878.1L1435.4,878.1z"/>
		<path d="M1528,889.3c0,5.2,0.1,9.7,0.4,13.6h-8l-0.5-8.1h-0.2c-3.4,5.8-9.7,9.4-16.5,9.3c-7.8,0-17.2-4.3-17.2-21.8v-29.1h8.9
			v27.6c0,9.5,2.9,15.8,11.1,15.8c5.3-0.1,10-3.3,11.9-8.2c0.5-1.5,0.8-3.1,0.8-4.6v-30.6h9.1V889.3z"/>
		<path d="M1543,866.6c0-5.1-0.1-9.4-0.4-13.5h8l0.5,8.2h0.2c3.3-5.9,9.7-9.5,16.5-9.4c6.9,0,17.6,4.1,17.6,21.2v29.7h-9.1v-28.7
			c0-8-3-14.7-11.5-14.7c-5.6,0.1-10.6,3.8-12.1,9.3c-0.4,1.4-0.7,2.8-0.6,4.3v29.9h-9V866.6z"/>
		<path d="M1643.1,829.8V890c0,4.4,0.1,9.5,0.4,12.8h-8.1l-0.4-8.6h-0.2c-2.8,5.6-8.8,9.8-17,9.8c-12,0-21.3-10.2-21.3-25.3
			c-0.1-16.6,10.2-26.8,22.3-26.8c7.6,0,12.8,3.6,15,7.6h0.2v-29.7H1643.1z M1634,873.4c0-1.3-0.1-2.6-0.4-3.8
			c-1.3-6.1-6.8-10.5-13.1-10.5c-9.4,0-14.9,8.2-14.9,19.2c0,10.1,4.9,18.4,14.7,18.4c6.4,0,11.9-4.5,13.3-10.8
			c0.3-1.3,0.4-2.6,0.4-3.9V873.4z"/>
	</g>
</g>
</svg>
