<svg xmlns="http://www.w3.org/2000/svg" width="6" height="10" viewBox="0 0 6 10" fill="none"><path fill-rule="evenodd" clip-rule="evenodd" d="M0.292787 9.70692C0.105316 9.51939 0 9.26508 0 8.99992C0 8.73475 0.105316 8.48045 0.292787 8.29292L3.58579 4.99992L0.292787 1.70692C0.110629 1.51832 0.00983372 1.26571 0.0121121 1.00352C0.0143906 0.741321 0.11956 0.490509 0.304968 0.305101C0.490376 0.119692 0.741189 0.0145233 1.00339 0.0122448C1.26558 0.00996641 1.51818 0.110761 1.70679 0.292919L5.70679 4.29292C5.89426 4.48045 5.99957 4.73475 5.99957 4.99992C5.99957 5.26508 5.89426 5.51939 5.70679 5.70692L1.70679 9.70692C1.51926 9.89439 1.26495 9.99971 0.999786 9.99971C0.734622 9.99971 0.480314 9.89439 0.292787 9.70692Z" fill="#000000"/></svg>